<svg xmlns="http://www.w3.org/2000/svg" viewBox="0 0 383.76 62.2"><title>LaunchDarklyBlog_v2</title><g id="Layer_2" data-name="Layer 2"><g id="Layer_1-2" data-name="Layer 1"><path d="M34.32,62.2c16.59,0,30.08-14,30.08-31.1A32.32,32.32,0,0,0,64,26.26c0,.53.09,1.07.09,1.58,0,15-11.82,27.24-26.35,27.24A25.73,25.73,0,0,1,20.6,48.5a20,20,0,0,1-7.78,4.32,29.52,29.52,0,0,0,21.5,9.38M11.39,27.84C11.39,12.82,23.21.6,37.74.6a25.63,25.63,0,0,1,3.66.3A29.14,29.14,0,0,0,34.32,0C17.74,0,4.24,14,4.24,31.1A31.81,31.81,0,0,0,6.76,43.54a30.39,30.39,0,0,1,6.78-4.93,27.87,27.87,0,0,1-2.15-10.77m13.1,2.91c1.54-2.28,3.45-4.88,5.64-7.54-5.66-2.48-11.31-.86-13.86.15a20.17,20.17,0,0,1,8.22,7.39M67.16,4.22a19.43,19.43,0,0,1-6.44,9.72l-.21.18c-.72.64-1.87.5-2.92-.35a3.12,3.12,0,0,1-1.27-2.23,1.66,1.66,0,0,1,.17-.73.74.74,0,0,1,.17-.22,26.07,26.07,0,0,0,5.22-6.32A32.64,32.64,0,0,0,49.32,8.05c-6.08,3.25-12,9-16.86,14.64l-.49.58-.49.6a99.37,99.37,0,0,0-6.2,8.35l-.48.74-.49.77c-.65,1-1.19,2-1.6,2.76l.35.25a7,7,0,0,1,.65.55,7.19,7.19,0,0,1,.61.66,7.33,7.33,0,0,1,1.16,2,8,8,0,0,1,.27.79c.07.27.13.56.18.86,0,.05,0,.1,0,.16.43-.06,1.12-.2,2-.41l.76-.19.76-.2.66-.18c-.12-.31-.23-.56-.32-.76s-.19-.43-.2-.44a.77.77,0,0,1-.07-.27.76.76,0,0,1,0-.34.74.74,0,0,1,.42-.43c.43-.17.85-.35,1.27-.53A45.88,45.88,0,0,0,40,32.87a.71.71,0,0,1,.69-.11.75.75,0,0,1,.46.54,23.77,23.77,0,0,1,.44,2.87q1.55-.78,3.17-1.7C53.47,29.55,65,20.41,71,4.87a23.65,23.65,0,0,0-3.82-.65M41.71,29.74A2.76,2.76,0,1,1,44.38,27a2.71,2.71,0,0,1-2.67,2.76m6-4.66a2.76,2.76,0,1,1,2.67-2.76,2.71,2.71,0,0,1-2.67,2.76m5.72-4.61a2.76,2.76,0,1,1,2.67-2.76,2.71,2.71,0,0,1-2.67,2.76M21.06,39.72a4.79,4.79,0,0,0-.51-.54,1.85,1.85,0,0,0-.68-.42l-.62.5.62-.5h0c-.6-.14-2.46-.35-5.54,1.18l-.07,0-.06,0a29.6,29.6,0,0,0-6.75,5L7.35,45l0,0A70.22,70.22,0,0,0,0,53.36a49.73,49.73,0,0,0,11.55-1.76l.06,0,.09,0a19.49,19.49,0,0,0,7.8-4.1l0,0,.06-.06a9.31,9.31,0,0,0,2.46-3.92c.08-.26.15-.52.21-.8s.09-.39.12-.6l-.07-.17a8.86,8.86,0,0,0-1.27-2.16m-2.2-.14h0m0,0h0m.75,2.2-.64.54-.6.48c-.5.4-1.06.82-1.62,1.24l-.07.05-.05,0c-1.67,1.25-3.28,2.41-3.28,2.41s1.6-4,1.36-4c-2.21.64-5.2,3.27-6.3,4.3l-.06.06,0,0L8,47.28l.28-.4,0-.06.06-.07a27.25,27.25,0,0,1,5.59-5.84c.18-.12.35-.23.53-.33l.05,0,.07,0a5.55,5.55,0,0,1,3.88-.57,4.73,4.73,0,0,1,.8.25,3.09,3.09,0,0,1,.69.39c.23.18.35.35.32.48a2.75,2.75,0,0,1-.68.71m9.67.74c-.19,1.23-.44,2.69-.77,3.93a13.9,13.9,0,0,0,2.86-2.08c-.22-.83-.46-1.59-.68-2.25l-1.4.39m-7-3.66a10.85,10.85,0,0,1,1.44,2.49,6.16,6.16,0,0,0,.63-.4,5.8,5.8,0,0,0-1.47-2.46l-.6.38m18-2q-.08-1-.26-2.1a47.85,47.85,0,0,1-5.68,3.41l-1,.48c-.54.26-1.11.52-1.69.76l-.34.15c.09.2.19.44.3.72l.27.7.25.7c.15.43.3.91.45,1.42.08.28.16.57.24.87s.14.57.21.87A23.31,23.31,0,0,1,33.64,50c0,.4-.07.81-.1,1.21a15.59,15.59,0,0,0,6.73-12.76c0-.11,0-.22,0-.33s0-.32,0-.49,0-.53,0-.8" style="fill:#fff;fill-rule:evenodd"/><path d="M81.81,17.2h2v26H99.66v1.91H81.81Zm26.31,26.53a8.82,8.82,0,0,0,2.85-.46A7.76,7.76,0,0,0,113.34,42,6.06,6.06,0,0,0,115,40a5.46,5.46,0,0,0,.6-2.55V35.16q-1.23-.32-2.89-.62a21.49,21.49,0,0,0-3.78-.3,7.72,7.72,0,0,0-4.8,1.29A4.13,4.13,0,0,0,102.4,39v.08a4.08,4.08,0,0,0,.46,2,4.47,4.47,0,0,0,1.25,1.45,5.84,5.84,0,0,0,1.83.92,7.33,7.33,0,0,0,2.16.32M108,45.56a9.62,9.62,0,0,1-2.74-.4,7.75,7.75,0,0,1-2.43-1.2,6.28,6.28,0,0,1-1.75-2,5.57,5.57,0,0,1-.67-2.79V39.1a6.09,6.09,0,0,1,.64-2.83,6,6,0,0,1,1.75-2.07,8,8,0,0,1,2.7-1.27,13.12,13.12,0,0,1,3.51-.44,23.22,23.22,0,0,1,3.59.24,26.26,26.26,0,0,1,2.93.64v-.88a6,6,0,0,0-1.72-4.66A6.84,6.84,0,0,0,109,26.28a11.35,11.35,0,0,0-3.32.46,16,16,0,0,0-2.85,1.18l-.69-1.71a20,20,0,0,1,3.28-1.27,13.35,13.35,0,0,1,3.7-.48,8.25,8.25,0,0,1,6.21,2.23,7.9,7.9,0,0,1,2,5.74V45.08h-1.85V41.69a10,10,0,0,1-1.21,1.41,8.29,8.29,0,0,1-1.64,1.23A9.25,9.25,0,0,1,108,45.56m20.4,0a8.47,8.47,0,0,1-3.32-.62,7,7,0,0,1-2.49-1.73,7.39,7.39,0,0,1-1.54-2.65,10.42,10.42,0,0,1-.52-3.37V24.77h1.89V36.83a7.48,7.48,0,0,0,1.62,5,5.76,5.76,0,0,0,4.63,1.89,6.72,6.72,0,0,0,2.68-.54,6.65,6.65,0,0,0,2.18-1.49A6.8,6.8,0,0,0,135,39.44a8,8,0,0,0,.52-2.93V24.77h1.89V45.08H135.5V41.3a9.37,9.37,0,0,1-2.7,3,7.29,7.29,0,0,1-4.4,1.23m12.92-20.79h1.89v3.78a9.37,9.37,0,0,1,2.7-3,7.29,7.29,0,0,1,4.4-1.23,8.47,8.47,0,0,1,3.32.62,7,7,0,0,1,2.49,1.73,7.37,7.37,0,0,1,1.54,2.65,10.41,10.41,0,0,1,.52,3.37V45.08h-1.89V33a7.48,7.48,0,0,0-1.62-5A5.76,5.76,0,0,0,150,26.08a6.63,6.63,0,0,0-4.86,2,6.81,6.81,0,0,0-1.45,2.29,8,8,0,0,0-.52,2.93V45.08h-1.89Zm29.08,20.79a9.22,9.22,0,0,1-4-.86,10.34,10.34,0,0,1-3.18-2.29,10.63,10.63,0,0,1-2.12-3.35,10.76,10.76,0,0,1-.77-4.06v-.08a10.75,10.75,0,0,1,.77-4.06,11.13,11.13,0,0,1,2.12-3.39,10,10,0,0,1,3.18-2.33,9.22,9.22,0,0,1,4-.86,9.93,9.93,0,0,1,2.53.3,9.53,9.53,0,0,1,2.1.82,9.85,9.85,0,0,1,1.75,1.19A17.19,17.19,0,0,1,178.27,28l-1.35,1.43a15.07,15.07,0,0,0-2.82-2.35,6.75,6.75,0,0,0-3.74-1,7.32,7.32,0,0,0-3.14.68,7.79,7.79,0,0,0-2.51,1.85A8.86,8.86,0,0,0,163,31.42a9.4,9.4,0,0,0-.62,3.43v.08a9.3,9.3,0,0,0,.64,3.45,9,9,0,0,0,1.74,2.81A8,8,0,0,0,167.36,43a7.45,7.45,0,0,0,3.16.68,7.13,7.13,0,0,0,3.72-1,11.59,11.59,0,0,0,2.87-2.41l1.31,1.19A13.72,13.72,0,0,1,175,44.42a8.86,8.86,0,0,1-4.61,1.14M180.51,16h1.89V28.55a9.36,9.36,0,0,1,2.7-3,7.29,7.29,0,0,1,4.4-1.23,8.48,8.48,0,0,1,3.32.62,7,7,0,0,1,2.49,1.73,7.38,7.38,0,0,1,1.54,2.65,10.41,10.41,0,0,1,.52,3.37V45.08h-1.89V33a7.48,7.48,0,0,0-1.62-5,5.76,5.76,0,0,0-4.63-1.89,6.63,6.63,0,0,0-4.86,2,6.81,6.81,0,0,0-1.45,2.29,8,8,0,0,0-.52,2.93V45.08h-1.89Zm29.82,27.17a13.27,13.27,0,0,0,5.09-.94,11.15,11.15,0,0,0,6.31-6.33,12.49,12.49,0,0,0,.87-4.68v-.08a12.54,12.54,0,0,0-.87-4.66,11.28,11.28,0,0,0-6.31-6.41,13,13,0,0,0-5.09-1h-7V43.17Zm-9-26h9a15.51,15.51,0,0,1,5.8,1.06,13.65,13.65,0,0,1,4.55,2.93,13,13,0,0,1,3,4.4,14.24,14.24,0,0,1,1,5.48v.08a14.39,14.39,0,0,1-1,5.5,13,13,0,0,1-3,4.42A13.9,13.9,0,0,1,216.13,44a15.26,15.26,0,0,1-5.8,1.08h-9Zm32.59,26.53a8.82,8.82,0,0,0,2.85-.46A7.75,7.75,0,0,0,239.16,42a6.06,6.06,0,0,0,1.62-2,5.46,5.46,0,0,0,.6-2.55V35.16q-1.23-.32-2.89-.62a21.49,21.49,0,0,0-3.78-.3,7.72,7.72,0,0,0-4.8,1.29A4.13,4.13,0,0,0,228.23,39v.08a4.08,4.08,0,0,0,.46,2,4.46,4.46,0,0,0,1.25,1.45,5.84,5.84,0,0,0,1.83.92,7.34,7.34,0,0,0,2.16.32m-.12,1.83a9.62,9.62,0,0,1-2.74-.4,7.75,7.75,0,0,1-2.43-1.2,6.29,6.29,0,0,1-1.76-2,5.58,5.58,0,0,1-.67-2.79V39.1a6.09,6.09,0,0,1,.64-2.83,6,6,0,0,1,1.75-2.07,8,8,0,0,1,2.7-1.27,13.12,13.12,0,0,1,3.51-.44,23.22,23.22,0,0,1,3.59.24,26.25,26.25,0,0,1,2.93.64v-.88a6,6,0,0,0-1.72-4.66,6.84,6.84,0,0,0-4.76-1.55,11.35,11.35,0,0,0-3.32.46,16,16,0,0,0-2.85,1.18L228,26.2a19.93,19.93,0,0,1,3.28-1.27,13.35,13.35,0,0,1,3.7-.48,8.25,8.25,0,0,1,6.21,2.23,7.9,7.9,0,0,1,2,5.74V45.08h-1.85V41.69a10,10,0,0,1-1.21,1.41,8.29,8.29,0,0,1-1.64,1.23,9.25,9.25,0,0,1-4.67,1.21m12.92-20.79h1.89v5.78A11.54,11.54,0,0,1,250.1,28a9.84,9.84,0,0,1,2-2,8.39,8.39,0,0,1,2.45-1.23,8.48,8.48,0,0,1,2.8-.38V26.6h-.19a8.18,8.18,0,0,0-3.24.66,7.75,7.75,0,0,0-2.72,2,9.58,9.58,0,0,0-1.87,3.19,12.62,12.62,0,0,0-.69,4.36v8.33h-1.89ZM258.93,16h1.89V37.79l12.19-13h2.51l-8.6,9,8.87,11.31h-2.39l-7.79-9.92-4.78,5v4.94h-1.89Zm18.63,0h1.89V45.08h-1.89Zm8.49,35.57a8.38,8.38,0,0,1-2-.22,11.85,11.85,0,0,1-1.89-.66l.66-1.71a6.85,6.85,0,0,0,1.5.58,8,8,0,0,0,1.85.18,4.14,4.14,0,0,0,1.43-.24,3.4,3.4,0,0,0,1.23-.82,7.45,7.45,0,0,0,1.12-1.49A17.65,17.65,0,0,0,291,45l-9.45-20.2h2.2L292,42.93,299,24.77h2.08l-8.52,21a11.44,11.44,0,0,1-2.87,4.48,5.59,5.59,0,0,1-3.68,1.29" style="fill:#fff;fill-rule:evenodd"/><path d="M325.6,33.4A7.25,7.25,0,0,1,327,37.85a6.88,6.88,0,0,1-2.61,5.71,11.3,11.3,0,0,1-7.19,2.06h-13V17.09h12.55a11.13,11.13,0,0,1,7,2,6.55,6.55,0,0,1,2.53,5.49,6.55,6.55,0,0,1-1.19,3.93,6.83,6.83,0,0,1-3.3,2.43A6.91,6.91,0,0,1,325.6,33.4Zm-16.29-4.29h6.6q5.38,0,5.38-4a3.46,3.46,0,0,0-1.34-3,6.89,6.89,0,0,0-4-1h-6.6Zm11.42,11.46a3.76,3.76,0,0,0,1.3-3.16,3.85,3.85,0,0,0-1.32-3.2,6.55,6.55,0,0,0-4.11-1.05h-7.29v8.42h7.29A6.73,6.73,0,0,0,320.72,40.57Z" style="fill:#fff"/><path d="M331.25,45.63V17.09h5.06V45.63Z" style="fill:#fff"/><path d="M345.08,44.7a8.68,8.68,0,0,1-3.54-3.6,11.42,11.42,0,0,1-1.25-5.47,11.3,11.3,0,0,1,1.25-5.45,8.72,8.72,0,0,1,3.54-3.58,11.92,11.92,0,0,1,10.65,0,8.59,8.59,0,0,1,3.52,3.58,11.46,11.46,0,0,1,1.24,5.45,11.57,11.57,0,0,1-1.24,5.47,8.56,8.56,0,0,1-3.52,3.6,11.92,11.92,0,0,1-10.65,0Zm9-4.29a7.52,7.52,0,0,0,1.3-4.78,7.54,7.54,0,0,0-1.3-4.76,4.47,4.47,0,0,0-3.72-1.64,4.52,4.52,0,0,0-3.74,1.64,7.45,7.45,0,0,0-1.32,4.76,7.52,7.52,0,0,0,1.3,4.78A4.49,4.49,0,0,0,350.36,42,4.54,4.54,0,0,0,354.12,40.4Z" style="fill:#fff"/><path d="M383.76,25.83v18q0,4.66-2.57,7t-7.59,2.39a18.4,18.4,0,0,1-5-.67,14.07,14.07,0,0,1-4.17-1.88l1.42-3.56a14.53,14.53,0,0,0,7.61,2.23q5.26,0,5.26-5.18V41.58a6.18,6.18,0,0,1-2.59,2.57,8.11,8.11,0,0,1-3.89.91,8.57,8.57,0,0,1-4.59-1.23,8.48,8.48,0,0,1-3.14-3.46,11.18,11.18,0,0,1-1.13-5.14,11.48,11.48,0,0,1,1.11-5.16,8.28,8.28,0,0,1,3.14-3.48,8.69,8.69,0,0,1,4.62-1.23,8.1,8.1,0,0,1,3.89.91,6.18,6.18,0,0,1,2.59,2.57v-3Zm-6.38,13.72a6.43,6.43,0,0,0,1.36-4.33,6.49,6.49,0,0,0-1.36-4.37,5.3,5.3,0,0,0-7.55,0,6.43,6.43,0,0,0-1.38,4.37,6.38,6.38,0,0,0,1.38,4.31,5.28,5.28,0,0,0,7.55,0Z" style="fill:#fff"/></g></g></svg>