<svg xmlns="http://www.w3.org/2000/svg" viewBox="0 0 592.82 176.1"><title>Asset 2</title><g id="Layer_2" data-name="Layer 2"><g id="Layer_1-2" data-name="Layer 1"><path d="M39.78,168.29c19.22,0,34.86-16.17,34.86-36a37.46,37.46,0,0,0-.47-5.61c0,.61.11,1.24.11,1.83,0,17.41-13.7,31.57-30.54,31.57a29.82,29.82,0,0,1-19.86-7.62,23.19,23.19,0,0,1-9,5,34.21,34.21,0,0,0,24.91,10.87M13.21,128.46c0-17.41,13.7-31.57,30.54-31.57a29.7,29.7,0,0,1,4.25.34,33.78,33.78,0,0,0-8.21-1c-19.22,0-34.86,16.17-34.86,36a36.86,36.86,0,0,0,2.92,14.42,35.22,35.22,0,0,1,7.86-5.71,32.3,32.3,0,0,1-2.5-12.49m15.19,3.37c1.78-2.64,4-5.65,6.53-8.74-6.56-2.87-13.11-1-16.06.18a23.38,23.38,0,0,1,9.53,8.56m49.45-30.74a22.52,22.52,0,0,1-7.46,11.27l-.24.21c-.84.74-2.17.58-3.39-.41a3.62,3.62,0,0,1-1.47-2.59,1.93,1.93,0,0,1,.19-.84.86.86,0,0,1,.19-.26,30.22,30.22,0,0,0,6.05-7.33,37.83,37.83,0,0,0-14.54,4.39c-7,3.77-14,10.4-19.54,17l-.57.67-.57.69a115.17,115.17,0,0,0-7.19,9.67l-.56.85-.56.89c-.75,1.21-1.38,2.29-1.86,3.2l.41.28a8.05,8.05,0,0,1,.75.63,8.33,8.33,0,0,1,.7.76,8.5,8.5,0,0,1,1.34,2.3,9.27,9.27,0,0,1,.31.92c.09.31.15.65.21,1,0,.06,0,.12,0,.18.5-.07,1.3-.23,2.35-.48l.88-.22.88-.23.76-.21c-.14-.36-.27-.65-.37-.88s-.23-.5-.23-.51a.89.89,0,0,1-.08-.31.88.88,0,0,1,0-.39.86.86,0,0,1,.49-.5c.5-.2,1-.4,1.47-.61a53.17,53.17,0,0,0,10.12-5.89.82.82,0,0,1,.8-.12.86.86,0,0,1,.53.63,27.55,27.55,0,0,1,.51,3.33q1.79-.9,3.67-2c10.05-5.72,23.39-16.31,30.35-34.32a27.41,27.41,0,0,0-4.43-.76M48.35,130.67a3.2,3.2,0,1,1,3.09-3.19,3.14,3.14,0,0,1-3.09,3.19m6.92-5.4a3.2,3.2,0,1,1,3.09-3.19,3.14,3.14,0,0,1-3.09,3.19m6.63-5.34A3.2,3.2,0,1,1,65,116.73a3.14,3.14,0,0,1-3.09,3.19M24.41,142.23a5.56,5.56,0,0,0-.59-.63,2.14,2.14,0,0,0-.79-.49l-.71.57.71-.57,0,0c-.69-.17-2.85-.41-6.42,1.36l-.08,0-.07,0a34.31,34.31,0,0,0-7.83,5.78l-.07.07-.06.05A81.39,81.39,0,0,0,0,158a57.63,57.63,0,0,0,13.39-2l.07,0,.11,0a22.59,22.59,0,0,0,9-4.75l.05,0,.07-.07a10.79,10.79,0,0,0,2.85-4.54c.09-.3.18-.61.24-.92s.1-.46.14-.69l-.09-.2a10.27,10.27,0,0,0-1.47-2.51m-2.55-.16h0m0,0h0m.87,2.55-.74.62-.7.56c-.58.46-1.23,1-1.87,1.44l-.08.06-.06,0c-1.93,1.45-3.8,2.79-3.8,2.79s1.85-4.65,1.57-4.59c-2.57.74-6,3.8-7.3,5l-.07.07-.05.05-.38.36.32-.46,0-.06.06-.09a31.58,31.58,0,0,1,6.48-6.77c.2-.14.41-.27.61-.38l.06,0,.08,0a6.43,6.43,0,0,1,4.49-.66,5.48,5.48,0,0,1,.93.29,3.59,3.59,0,0,1,.8.45c.27.21.41.41.37.55a3.18,3.18,0,0,1-.78.83m11.21.86c-.22,1.43-.52,3.11-.89,4.56a16.11,16.11,0,0,0,3.31-2.41c-.25-1-.53-1.84-.79-2.61l-1.63.46m-8.14-4.24a12.58,12.58,0,0,1,1.67,2.88,7.14,7.14,0,0,0,.73-.47,6.72,6.72,0,0,0-1.7-2.85l-.7.44m20.81-2.31q-.09-1.18-.3-2.43a55.46,55.46,0,0,1-6.58,4L38.6,141c-.63.3-1.28.6-2,.89l-.4.17c.1.23.22.51.35.83s.2.52.31.81l.29.81c.17.5.35,1.05.53,1.64.1.32.19.66.28,1s.17.66.25,1a27,27,0,0,1,.74,6c0,.47-.08.93-.12,1.4a18.07,18.07,0,0,0,7.8-14.79c0-.13,0-.25,0-.39s0-.37,0-.56,0-.61-.05-.93" style="fill:#fff;fill-rule:evenodd"/><path d="M94.29,100.73h2v26.12h15.94v1.92h-18Zm26.45,26.68a8.87,8.87,0,0,0,2.87-.46,7.8,7.8,0,0,0,2.39-1.28,6.09,6.09,0,0,0,1.63-2,5.49,5.49,0,0,0,.6-2.56v-2.32q-1.24-.32-2.91-.62a21.61,21.61,0,0,0-3.8-.3,7.77,7.77,0,0,0-4.83,1.3,4.16,4.16,0,0,0-1.69,3.46v.08a4.1,4.1,0,0,0,.47,2,4.49,4.49,0,0,0,1.26,1.46,5.87,5.87,0,0,0,1.84.92,7.38,7.38,0,0,0,2.17.32m-.12,1.84a9.68,9.68,0,0,1-2.75-.4,7.79,7.79,0,0,1-2.44-1.2,6.31,6.31,0,0,1-1.76-2,5.61,5.61,0,0,1-.68-2.8v-.08a6.12,6.12,0,0,1,.64-2.84,6,6,0,0,1,1.76-2.08,8.08,8.08,0,0,1,2.71-1.28,13.2,13.2,0,0,1,3.53-.44,23.35,23.35,0,0,1,3.61.24,26.41,26.41,0,0,1,2.95.64v-.88a6,6,0,0,0-1.73-4.69,6.88,6.88,0,0,0-4.79-1.56,11.41,11.41,0,0,0-3.34.46,16.11,16.11,0,0,0-2.87,1.18l-.7-1.72a20.07,20.07,0,0,1,3.3-1.28,13.43,13.43,0,0,1,3.72-.48,8.29,8.29,0,0,1,6.24,2.24,7.94,7.94,0,0,1,2,5.77v12.74h-1.86v-3.4a10,10,0,0,1-1.22,1.42,8.33,8.33,0,0,1-1.65,1.24,9.3,9.3,0,0,1-4.69,1.22m20.52,0a8.52,8.52,0,0,1-3.34-.62,7.06,7.06,0,0,1-2.5-1.74,7.43,7.43,0,0,1-1.55-2.66,10.47,10.47,0,0,1-.52-3.38v-12.5h1.9v12.14a7.53,7.53,0,0,0,1.63,5.07,5.79,5.79,0,0,0,4.65,1.9,6.76,6.76,0,0,0,2.7-.54,6.69,6.69,0,0,0,2.19-1.5,6.84,6.84,0,0,0,1.45-2.3,8,8,0,0,0,.52-2.94V108.34h1.9v20.43h-1.9V125a9.42,9.42,0,0,1-2.71,3,7.33,7.33,0,0,1-4.42,1.24m13-20.91H156v3.81a9.42,9.42,0,0,1,2.71-3,7.33,7.33,0,0,1,4.42-1.24,8.52,8.52,0,0,1,3.34.62,7.07,7.07,0,0,1,2.5,1.74,7.41,7.41,0,0,1,1.55,2.66,10.46,10.46,0,0,1,.52,3.38v12.5h-1.9V116.63a7.53,7.53,0,0,0-1.63-5.07,5.79,5.79,0,0,0-4.65-1.9,6.67,6.67,0,0,0-4.89,2,6.85,6.85,0,0,0-1.45,2.3A8,8,0,0,0,156,117v11.82h-1.9Zm29.25,20.91a9.27,9.27,0,0,1-4-.86,10.4,10.4,0,0,1-3.2-2.3,10.69,10.69,0,0,1-2.13-3.36,10.82,10.82,0,0,1-.78-4.09v-.08a10.82,10.82,0,0,1,.78-4.09,11.19,11.19,0,0,1,2.13-3.4,10.09,10.09,0,0,1,3.2-2.34,9.27,9.27,0,0,1,4-.86,10,10,0,0,1,2.54.3A9.58,9.58,0,0,1,188,109a9.91,9.91,0,0,1,1.76,1.2,17.29,17.29,0,0,1,1.49,1.44l-1.36,1.44a15.15,15.15,0,0,0-2.83-2.36,6.79,6.79,0,0,0-3.76-1,7.36,7.36,0,0,0-3.16.68,7.83,7.83,0,0,0-2.52,1.86A8.91,8.91,0,0,0,176,115a9.45,9.45,0,0,0-.62,3.44v.08A9.35,9.35,0,0,0,176,122a9,9,0,0,0,1.74,2.82,8.07,8.07,0,0,0,2.58,1.88,7.49,7.49,0,0,0,3.18.68,7.17,7.17,0,0,0,3.74-1,11.65,11.65,0,0,0,2.89-2.42l1.32,1.2a13.8,13.8,0,0,1-3.43,2.9,8.91,8.91,0,0,1-4.63,1.14m10.16-29.72h1.9v12.62a9.42,9.42,0,0,1,2.72-3,7.33,7.33,0,0,1,4.42-1.24,8.52,8.52,0,0,1,3.34.62,7.07,7.07,0,0,1,2.5,1.74,7.42,7.42,0,0,1,1.55,2.66,10.47,10.47,0,0,1,.52,3.38v12.5h-1.9V116.63a7.53,7.53,0,0,0-1.63-5.07,5.79,5.79,0,0,0-4.65-1.9,6.67,6.67,0,0,0-4.89,2A6.84,6.84,0,0,0,196,114a8,8,0,0,0-.52,2.94v11.82h-1.9Zm30,27.32a13.35,13.35,0,0,0,5.12-.94,11.21,11.21,0,0,0,6.34-6.37,12.56,12.56,0,0,0,.87-4.71v-.08a12.61,12.61,0,0,0-.87-4.69,11.34,11.34,0,0,0-6.34-6.45,13.1,13.1,0,0,0-5.12-1h-7v24.19Zm-9-26.12h9a15.6,15.6,0,0,1,5.84,1.06,13.72,13.72,0,0,1,4.58,2.94,13.12,13.12,0,0,1,3,4.43,14.32,14.32,0,0,1,1,5.51v.08a14.47,14.47,0,0,1-1,5.53,13.07,13.07,0,0,1-3,4.45,14,14,0,0,1-4.58,3,15.35,15.35,0,0,1-5.84,1.08h-9Zm32.78,26.68a8.87,8.87,0,0,0,2.87-.46,7.8,7.8,0,0,0,2.39-1.28,6.09,6.09,0,0,0,1.63-2,5.49,5.49,0,0,0,.6-2.56v-2.32q-1.24-.32-2.91-.62a21.61,21.61,0,0,0-3.8-.3,7.77,7.77,0,0,0-4.83,1.3,4.16,4.16,0,0,0-1.69,3.46v.08a4.1,4.1,0,0,0,.47,2,4.49,4.49,0,0,0,1.26,1.46,5.87,5.87,0,0,0,1.84.92,7.38,7.38,0,0,0,2.17.32m-.12,1.84a9.67,9.67,0,0,1-2.75-.4,7.79,7.79,0,0,1-2.44-1.2,6.32,6.32,0,0,1-1.77-2,5.61,5.61,0,0,1-.68-2.8v-.08a6.12,6.12,0,0,1,.64-2.84,6,6,0,0,1,1.76-2.08,8.08,8.08,0,0,1,2.71-1.28,13.2,13.2,0,0,1,3.53-.44,23.36,23.36,0,0,1,3.61.24,26.39,26.39,0,0,1,2.95.64v-.88a6,6,0,0,0-1.73-4.69,6.88,6.88,0,0,0-4.79-1.56,11.41,11.41,0,0,0-3.34.46A16.1,16.1,0,0,0,242,111.5l-.7-1.72a20,20,0,0,1,3.3-1.28,13.42,13.42,0,0,1,3.72-.48,8.29,8.29,0,0,1,6.24,2.24,7.94,7.94,0,0,1,2,5.77v12.74h-1.86v-3.4a10,10,0,0,1-1.22,1.42,8.34,8.34,0,0,1-1.65,1.24,9.3,9.3,0,0,1-4.69,1.22m13-20.91h1.9v5.81a11.61,11.61,0,0,1,1.47-2.52,9.9,9.9,0,0,1,2-2A8.44,8.44,0,0,1,268,108.4a8.53,8.53,0,0,1,2.81-.38v2.16h-.19a8.23,8.23,0,0,0-3.26.66,7.79,7.79,0,0,0-2.73,2,9.64,9.64,0,0,0-1.88,3.2,12.69,12.69,0,0,0-.7,4.39v8.37h-1.9Zm12.26-8.81h1.9v21.91l12.26-13.1h2.52l-8.65,9.05,8.92,11.38H287l-7.83-10-4.81,5v5h-1.9Zm18.74,0h1.9v29.24h-1.9Zm8.54,35.77a8.43,8.43,0,0,1-2-.22,11.91,11.91,0,0,1-1.9-.66l.66-1.72a6.89,6.89,0,0,0,1.51.58,8,8,0,0,0,1.86.18,4.16,4.16,0,0,0,1.44-.24,3.42,3.42,0,0,0,1.24-.82,7.49,7.49,0,0,0,1.12-1.5,17.75,17.75,0,0,0,1.09-2.24l-9.5-20.31h2.21l8.22,18.27,7.14-18.27h2.09l-8.57,21.15a11.51,11.51,0,0,1-2.89,4.51,5.62,5.62,0,0,1-3.7,1.3" style="fill:#fff;fill-rule:evenodd"/><path d="M113.66,155.93a7.28,7.28,0,0,1,1.38,4.54,7.08,7.08,0,0,1-2.58,5.84q-2.58,2.08-7.2,2.08H92.64V139.3h12.17a11.1,11.1,0,0,1,7,2,7.33,7.33,0,0,1,1.32,9.59,7.19,7.19,0,0,1-3.4,2.52A7.14,7.14,0,0,1,113.66,155.93Zm-16.86-4h7.34q6.11,0,6.11-4.62a4,4,0,0,0-1.51-3.42,7.74,7.74,0,0,0-4.6-1.11H96.81Zm12.67,11.92a4.26,4.26,0,0,0,1.49-3.59,4.47,4.47,0,0,0-1.51-3.69,7.32,7.32,0,0,0-4.64-1.22h-8V165h8A7.59,7.59,0,0,0,109.48,163.81Z" style="fill:#fff"/><path d="M118.43,168.39V139.3h4.17v29.09Z" style="fill:#fff"/><path d="M130.25,167.4a8.62,8.62,0,0,1-3.47-3.65,13.17,13.17,0,0,1,0-11.06,8.63,8.63,0,0,1,3.47-3.65,11.29,11.29,0,0,1,10.44,0,8.63,8.63,0,0,1,3.47,3.65,13.17,13.17,0,0,1,0,11.06,8.63,8.63,0,0,1-3.47,3.65,11.29,11.29,0,0,1-10.44,0Zm9.45-3.84a10.3,10.3,0,0,0,0-10.62,5.74,5.74,0,0,0-8.42,0,10.3,10.3,0,0,0,0,10.62,5.83,5.83,0,0,0,8.46,0Z" style="fill:#fff"/><path d="M167,148.25v18.53q0,4.62-2.46,7t-7.24,2.35a17.5,17.5,0,0,1-4.93-.68,13.91,13.91,0,0,1-4.15-2l1.28-3a15.32,15.32,0,0,0,3.82,1.84,13.52,13.52,0,0,0,3.94.56q5.65,0,5.65-5.74v-3.18a6.32,6.32,0,0,1-2.64,2.83,8.18,8.18,0,0,1-4.13,1,9,9,0,0,1-4.7-1.24,8.32,8.32,0,0,1-3.2-3.51,11.56,11.56,0,0,1-1.13-5.24,11.4,11.4,0,0,1,1.16-5.24,8.65,8.65,0,0,1,3.2-3.53,8.75,8.75,0,0,1,4.68-1.26,8.13,8.13,0,0,1,4.06,1,6.48,6.48,0,0,1,2.66,2.81v-3.3Zm-5.65,14.44a7.29,7.29,0,0,0,1.53-4.91,7.37,7.37,0,0,0-1.51-4.89,5.22,5.22,0,0,0-4.23-1.79,5.37,5.37,0,0,0-4.27,1.77,8.52,8.52,0,0,0,0,9.82,5.38,5.38,0,0,0,4.25,1.77A5.26,5.26,0,0,0,161.38,162.69Z" style="fill:#fff"/><path d="M10.71,0H24.27q1.59,0,1.6,1.82V70.64a1.54,1.54,0,0,0,.28,1.08,1.34,1.34,0,0,0,1,.29H64.49q1.82,0,1.82,1.59v9.23a1.75,1.75,0,0,1-.46,1.2,1.89,1.89,0,0,1-1.48.51H11.17A2.24,2.24,0,0,1,9.46,84,2.25,2.25,0,0,1,9,82.49V1.94Q9,0,10.71,0Z" style="fill:#d2e6ef"/><path d="M92.86,85.68q-8.66,0-13.73-4.62a15.49,15.49,0,0,1-5.07-12q0-9.46,8.43-15t23.59-6.15l5.7-.34q1.82-.23,1.82-1.71V43.18a10.11,10.11,0,0,0-3-7.81q-3-2.79-8.26-2.79A14.83,14.83,0,0,0,89,40.11a6.88,6.88,0,0,1-.63.74,1,1,0,0,1-.74.28,2.94,2.94,0,0,1-.91-.11l-9.57-2.39a1,1,0,0,1-.91-1,3.54,3.54,0,0,1,.46-1.48,20.23,20.23,0,0,1,9.74-9.74Q93.2,23,103,23q12.76,0,18.74,5t6,14.13V82.26a3,3,0,0,1-.4,1.77,1.87,1.87,0,0,1-1.54.51H116.1a1.65,1.65,0,0,1-1.48-.68,5.34,5.34,0,0,1-.68-2.05l-.11-3.42q-.11-1-.8-1a3.8,3.8,0,0,0-1.48.91A26.58,26.58,0,0,1,92.86,85.68ZM113.2,55.49a1.67,1.67,0,0,0-1.31-.46l-4.67.34A31.13,31.13,0,0,0,93.94,59q-5.3,3-5.3,8.26a7.52,7.52,0,0,0,2.79,6.15,11.43,11.43,0,0,0,7.46,2.28A15.85,15.85,0,0,0,109.27,72q4.33-3.42,4.33-7V57A2.24,2.24,0,0,0,113.2,55.49Z" style="fill:#d2e6ef"/><path d="M179.11,67V26.43q0-2.28,2.62-2.28H192q2.05,0,2.05,2.17l-.23,56.4q0,1.82-1.6,1.82H181q-1.6,0-1.6-1.71v-6c0-.38-.11-.61-.34-.68s-.5,0-.8.34a36.28,36.28,0,0,1-10,7.12,24.49,24.49,0,0,1-10.08,2.11,17.3,17.3,0,0,1-12.7-4.9q-5-4.9-5-13.1V26.55A2.11,2.11,0,0,1,143,24.15h10.48a1.89,1.89,0,0,1,1.48.51,2.46,2.46,0,0,1,.46,1.65V65.17a9.79,9.79,0,0,0,2.51,7.06,8.86,8.86,0,0,0,6.72,2.62Q171.59,74.86,179.11,67Z" style="fill:#d2e6ef"/><path d="M208.73,84.09a2.22,2.22,0,0,1-.46-1.59V26.09q0-1.94,1.6-1.94h11.39q1.48,0,1.48,1.71v5.92c0,.46.11.72.34.8s.53,0,.91-.34a47.91,47.91,0,0,1,10-7,22.21,22.21,0,0,1,10-2.28q8.43,0,13.27,4.84t4.84,12.82V82.15a2.11,2.11,0,0,1-2.39,2.39H249.18a2,2,0,0,1-1.54-.46,2.44,2.44,0,0,1-.4-1.59V43.3a9.32,9.32,0,0,0-2.45-6.89Q242.35,34,237.68,34a14.53,14.53,0,0,0-7.24,1.82,35.75,35.75,0,0,0-7.35,5.92V82.26a2.29,2.29,0,0,1-.57,1.77,3.11,3.11,0,0,1-2.05.51H210.33A2.22,2.22,0,0,1,208.73,84.09Z" style="fill:#d2e6ef"/><path d="M318.34,27.69a26.16,26.16,0,0,1,9.12,11.51l.23,1q0,.91-1.37,1.14l-10,1.25-.46.11q-.8,0-1.14-1.14A28.26,28.26,0,0,0,309.51,35,9.7,9.7,0,0,0,303,32.93a13.12,13.12,0,0,0-11.17,5.58q-4.1,5.58-4.1,15.84,0,10.49,4.22,16t11.74,5.53a13.18,13.18,0,0,0,8.2-2.51,26.66,26.66,0,0,0,6.38-7.63,1.47,1.47,0,0,1,.74-.57,1.93,1.93,0,0,1,1.08.11l7.18,1.94q1.14.34.68,1.94a29.31,29.31,0,0,1-9.23,11.56q-6.38,5-16.29,5a30,30,0,0,1-15.32-3.93,27.58,27.58,0,0,1-10.6-11,33.47,33.47,0,0,1-3.82-16.18,34,34,0,0,1,3.87-16.41A28.2,28.2,0,0,1,287.18,27a29.43,29.43,0,0,1,15.21-4Q312,23,318.34,27.69Z" style="fill:#d2e6ef"/><path d="M338.17,82.49V1.94q0-1.94,1.71-1.94h11.28q1.48,0,1.48,1.71V31.33c0,.46.11.72.34.8s.53,0,.91-.34A44.8,44.8,0,0,1,364.09,25a23.8,23.8,0,0,1,9.74-2q8.77,0,13.45,4.73t4.67,13.16V82.15a2.12,2.12,0,0,1-2.39,2.39H379.07a2,2,0,0,1-1.54-.46,2.44,2.44,0,0,1-.4-1.59V43.3a9.46,9.46,0,0,0-2.39-6.89Q372.35,34,367.68,34a14.85,14.85,0,0,0-7.29,1.82A34.85,34.85,0,0,0,353,41.7V82.26a2.29,2.29,0,0,1-.57,1.77,2.89,2.89,0,0,1-1.94.51H340.33Q338.17,84.54,338.17,82.49Z" style="fill:#d2e6ef"/><path d="M420.43,26.21v3.87c0,.61.19.91.57.91.23,0,.53-.19.91-.57A35.36,35.36,0,0,1,429.26,25,20.55,20.55,0,0,1,439,23a21.72,21.72,0,0,1,20.85,13.73q3.08,6.9,3.08,16.92,0,15.61-6.84,23.81T438,85.68a22.19,22.19,0,0,1-15.5-5.81A3.82,3.82,0,0,0,421,79c-.38,0-.57.53-.57,1.59v21q0,1.82-1.59,1.82H407.22q-1.6,0-1.6-1.82V26.43a2.45,2.45,0,0,1,.51-1.77,2.45,2.45,0,0,1,1.77-.51h10.37Q420.43,24.15,420.43,26.21ZM432.85,76a12.87,12.87,0,0,0,11.05-5.53q4-5.53,4-16.92,0-10.94-3.93-15.9a12.88,12.88,0,0,0-10.65-5,14.12,14.12,0,0,0-6.61,1.54,12.4,12.4,0,0,0-4.61,3.93,8.69,8.69,0,0,0-1.65,5V69.73Q426.13,76,432.85,76Z" style="fill:#d2e6ef"/><path d="M489.71,85.68q-8.66,0-13.73-4.62a15.49,15.49,0,0,1-5.07-12q0-9.46,8.43-15t23.58-6.15l5.7-.34q1.82-.23,1.82-1.71V43.18a10.11,10.11,0,0,0-3-7.81q-3-2.79-8.26-2.79a14.83,14.83,0,0,0-13.33,7.52,6.94,6.94,0,0,1-.63.74,1,1,0,0,1-.74.28,2.93,2.93,0,0,1-.91-.11L474,38.63a1,1,0,0,1-.91-1,3.56,3.56,0,0,1,.46-1.48,20.23,20.23,0,0,1,9.74-9.74Q490,23,499.85,23q12.76,0,18.74,5t6,14.13V82.26a3,3,0,0,1-.4,1.77,1.87,1.87,0,0,1-1.54.51H513a1.65,1.65,0,0,1-1.48-.68,5.34,5.34,0,0,1-.68-2.05l-.11-3.42q-.11-1-.8-1a3.8,3.8,0,0,0-1.48.91A26.58,26.58,0,0,1,489.71,85.68ZM510,55.49a1.67,1.67,0,0,0-1.31-.46l-4.67.34A31.13,31.13,0,0,0,490.79,59q-5.3,3-5.3,8.26a7.52,7.52,0,0,0,2.79,6.15,11.43,11.43,0,0,0,7.46,2.28A15.85,15.85,0,0,0,506.11,72q4.33-3.42,4.33-7V57A2.23,2.23,0,0,0,510,55.49Z" style="fill:#d2e6ef"/><path d="M578.24,82.49V78.73q0-1-.57-1a1.56,1.56,0,0,0-.91.57,31.48,31.48,0,0,1-7.35,5.3,21.12,21.12,0,0,1-9.86,2.11A22.85,22.85,0,0,1,547,82.21a23.25,23.25,0,0,1-8.6-10.37q-3.13-6.89-3.13-16.92a39.3,39.3,0,0,1,3.36-16.64A27,27,0,0,1,547.82,27a22.44,22.44,0,0,1,13-4,21.12,21.12,0,0,1,8.37,1.54,25.31,25.31,0,0,1,6.89,4.5,1.74,1.74,0,0,0,1.25.57q.68,0,.68-1.48V1.82Q578,0,579.61,0h11.51q1.71,0,1.71,1.94V82.38a2.26,2.26,0,0,1-.51,1.65,2.65,2.65,0,0,1-1.88.51h-10Q578.24,84.54,578.24,82.49ZM572,34.35a13.78,13.78,0,0,0-6.55-1.54,13.1,13.1,0,0,0-11,5.53q-4.16,5.53-4.16,16.35t4,16.18a12.91,12.91,0,0,0,10.77,5.24,13.39,13.39,0,0,0,11.17-5.92A9.69,9.69,0,0,0,578,64.83V39.08A24.45,24.45,0,0,0,572,34.35Z" style="fill:#d2e6ef"/></g></g></svg>