<svg xmlns="http://www.w3.org/2000/svg" viewBox="0 0 314.85 79.9"><title>LaunchDarklyBlog</title><g id="Layer_2" data-name="Layer 2"><g id="Layer_1-2" data-name="Layer 1"><path d="M39.78,72.09c19.22,0,34.86-16.17,34.86-36a37.46,37.46,0,0,0-.47-5.61c0,.61.11,1.24.11,1.83,0,17.41-13.7,31.57-30.54,31.57a29.82,29.82,0,0,1-19.86-7.62,23.19,23.19,0,0,1-9,5A34.21,34.21,0,0,0,39.78,72.09M13.21,32.26C13.21,14.85,26.9.69,43.74.69A29.7,29.7,0,0,1,48,1a33.78,33.78,0,0,0-8.21-1C20.56,0,4.92,16.17,4.92,36A36.86,36.86,0,0,0,7.84,50.46a35.22,35.22,0,0,1,7.86-5.71,32.3,32.3,0,0,1-2.5-12.49m15.19,3.37c1.78-2.64,4-5.65,6.53-8.74-6.56-2.87-13.11-1-16.06.18a23.38,23.38,0,0,1,9.53,8.56M77.84,4.89a22.52,22.52,0,0,1-7.46,11.27l-.24.21c-.84.74-2.17.58-3.39-.41a3.62,3.62,0,0,1-1.47-2.59,1.93,1.93,0,0,1,.19-.84.86.86,0,0,1,.19-.26,30.22,30.22,0,0,0,6.05-7.33A37.83,37.83,0,0,0,57.16,9.33c-7,3.77-14,10.4-19.54,17l-.57.67-.57.69a115.17,115.17,0,0,0-7.19,9.67l-.56.85-.56.89c-.75,1.21-1.38,2.29-1.86,3.2l.41.28a8.05,8.05,0,0,1,.75.63,8.33,8.33,0,0,1,.7.76,8.5,8.5,0,0,1,1.34,2.3,9.27,9.27,0,0,1,.31.92c.09.31.15.65.21,1,0,.06,0,.12,0,.18.5-.07,1.3-.23,2.35-.48l.88-.22.88-.23L35,47.2c-.14-.36-.27-.65-.37-.88s-.23-.5-.23-.51a.89.89,0,0,1-.08-.31.88.88,0,0,1,0-.39.86.86,0,0,1,.49-.5c.5-.2,1-.4,1.47-.61A53.17,53.17,0,0,0,46.41,38.1a.82.82,0,0,1,.8-.12.86.86,0,0,1,.53.63,27.55,27.55,0,0,1,.51,3.33Q50,41,51.92,40C62,34.25,75.31,23.65,82.27,5.64a27.41,27.41,0,0,0-4.43-.76M48.35,34.47a3.2,3.2,0,1,1,3.09-3.19,3.14,3.14,0,0,1-3.09,3.19m6.92-5.4a3.2,3.2,0,1,1,3.09-3.19,3.14,3.14,0,0,1-3.09,3.19m6.63-5.34A3.2,3.2,0,1,1,65,20.53a3.14,3.14,0,0,1-3.09,3.19M24.41,46a5.56,5.56,0,0,0-.59-.63,2.14,2.14,0,0,0-.79-.49l-.71.57.71-.57,0,0c-.69-.17-2.85-.41-6.42,1.36l-.08,0-.07,0a34.31,34.31,0,0,0-7.83,5.78l-.07.07-.06.05A81.39,81.39,0,0,0,0,61.85a57.63,57.63,0,0,0,13.39-2l.07,0,.11,0a22.59,22.59,0,0,0,9-4.75l.05,0,.07-.07a10.79,10.79,0,0,0,2.85-4.54c.09-.3.18-.61.24-.92s.1-.46.14-.69l-.09-.2A10.27,10.27,0,0,0,24.41,46m-2.55-.16h0m0,0h0m.87,2.55L22,49l-.7.56c-.58.46-1.23,1-1.87,1.44l-.08.06-.06,0c-1.93,1.45-3.8,2.79-3.8,2.79s1.85-4.65,1.57-4.59c-2.57.74-6,3.8-7.3,5l-.07.07-.05.05-.38.36.32-.46,0-.06.06-.09a31.58,31.58,0,0,1,6.48-6.77c.2-.14.41-.27.61-.38l.06,0,.08,0a6.43,6.43,0,0,1,4.49-.66,5.48,5.48,0,0,1,.93.29,3.59,3.59,0,0,1,.8.45c.27.21.41.41.37.55a3.18,3.18,0,0,1-.78.83m11.21.86c-.22,1.43-.52,3.11-.89,4.56a16.11,16.11,0,0,0,3.31-2.41c-.25-1-.53-1.84-.79-2.61l-1.63.46M25.81,45a12.58,12.58,0,0,1,1.67,2.88,7.14,7.14,0,0,0,.73-.47,6.72,6.72,0,0,0-1.7-2.85l-.7.44m20.81-2.31q-.09-1.18-.3-2.43a55.46,55.46,0,0,1-6.58,4l-1.13.56c-.63.3-1.28.6-2,.89l-.4.17c.1.23.22.51.35.83s.2.52.31.81l.29.81c.17.5.35,1.05.53,1.64.1.32.19.66.28,1s.17.66.25,1A27,27,0,0,1,39,58c0,.47-.08.93-.12,1.4a18.07,18.07,0,0,0,7.8-14.79c0-.13,0-.25,0-.39s0-.37,0-.56,0-.61-.05-.93" style="fill:#fff;fill-rule:evenodd"/><path d="M94.29,4.53h2V30.64h15.94v1.92h-18Zm26.45,26.68a8.87,8.87,0,0,0,2.87-.46A7.8,7.8,0,0,0,126,29.46a6.09,6.09,0,0,0,1.63-2,5.49,5.49,0,0,0,.6-2.56V22.59q-1.24-.32-2.91-.62a21.61,21.61,0,0,0-3.8-.3,7.77,7.77,0,0,0-4.83,1.3A4.16,4.16,0,0,0,115,26.44v.08a4.1,4.1,0,0,0,.47,2A4.49,4.49,0,0,0,116.73,30a5.87,5.87,0,0,0,1.84.92,7.38,7.38,0,0,0,2.17.32M120.62,33a9.68,9.68,0,0,1-2.75-.4,7.79,7.79,0,0,1-2.44-1.2,6.31,6.31,0,0,1-1.76-2,5.61,5.61,0,0,1-.68-2.8v-.08a6.12,6.12,0,0,1,.64-2.84,6,6,0,0,1,1.76-2.08,8.08,8.08,0,0,1,2.71-1.28,13.2,13.2,0,0,1,3.53-.44,23.35,23.35,0,0,1,3.61.24,26.41,26.41,0,0,1,2.95.64v-.88a6,6,0,0,0-1.73-4.69,6.88,6.88,0,0,0-4.79-1.56,11.41,11.41,0,0,0-3.34.46,16.11,16.11,0,0,0-2.87,1.18l-.7-1.72a20.07,20.07,0,0,1,3.3-1.28,13.43,13.43,0,0,1,3.72-.48A8.29,8.29,0,0,1,128,14.06a7.94,7.94,0,0,1,2,5.77V32.57h-1.86v-3.4A10,10,0,0,1,127,30.58a8.33,8.33,0,0,1-1.65,1.24A9.3,9.3,0,0,1,120.62,33m20.52,0a8.52,8.52,0,0,1-3.34-.62,7.06,7.06,0,0,1-2.5-1.74A7.43,7.43,0,0,1,133.76,28a10.47,10.47,0,0,1-.52-3.38V12.14h1.9V24.28a7.53,7.53,0,0,0,1.63,5.07,5.79,5.79,0,0,0,4.65,1.9,6.76,6.76,0,0,0,2.7-.54,6.69,6.69,0,0,0,2.19-1.5,6.84,6.84,0,0,0,1.45-2.3,8,8,0,0,0,.52-2.94V12.14h1.9V32.57h-1.9V28.76a9.42,9.42,0,0,1-2.71,3A7.33,7.33,0,0,1,141.14,33m13-20.91H156v3.81a9.42,9.42,0,0,1,2.71-3,7.33,7.33,0,0,1,4.42-1.24,8.52,8.52,0,0,1,3.34.62A7.07,7.07,0,0,1,169,14a7.41,7.41,0,0,1,1.55,2.66,10.46,10.46,0,0,1,.52,3.38v12.5h-1.9V20.43a7.53,7.53,0,0,0-1.63-5.07,5.79,5.79,0,0,0-4.65-1.9,6.67,6.67,0,0,0-4.89,2,6.85,6.85,0,0,0-1.45,2.3,8,8,0,0,0-.52,2.94V32.57h-1.9ZM183.39,33a9.27,9.27,0,0,1-4-.86,10.4,10.4,0,0,1-3.2-2.3,10.69,10.69,0,0,1-2.13-3.36,10.82,10.82,0,0,1-.78-4.09v-.08a10.82,10.82,0,0,1,.78-4.09,11.19,11.19,0,0,1,2.13-3.4,10.09,10.09,0,0,1,3.2-2.34,9.27,9.27,0,0,1,4-.86,10,10,0,0,1,2.54.3,9.58,9.58,0,0,1,2.11.82,9.91,9.91,0,0,1,1.76,1.2,17.29,17.29,0,0,1,1.49,1.44l-1.36,1.44a15.15,15.15,0,0,0-2.83-2.36,6.79,6.79,0,0,0-3.76-1,7.36,7.36,0,0,0-3.16.68A7.83,7.83,0,0,0,177.67,16,8.91,8.91,0,0,0,176,18.83a9.45,9.45,0,0,0-.62,3.44v.08a9.35,9.35,0,0,0,.64,3.46,9,9,0,0,0,1.74,2.82,8.07,8.07,0,0,0,2.58,1.88,7.49,7.49,0,0,0,3.18.68,7.17,7.17,0,0,0,3.74-1,11.65,11.65,0,0,0,2.89-2.42l1.32,1.2a13.8,13.8,0,0,1-3.43,2.9A8.91,8.91,0,0,1,183.39,33M193.55,3.33h1.9V15.94a9.42,9.42,0,0,1,2.72-3,7.33,7.33,0,0,1,4.42-1.24,8.52,8.52,0,0,1,3.34.62,7.07,7.07,0,0,1,2.5,1.74A7.42,7.42,0,0,1,210,16.68a10.47,10.47,0,0,1,.52,3.38v12.5h-1.9V20.43A7.53,7.53,0,0,0,207,15.36a5.79,5.79,0,0,0-4.65-1.9,6.67,6.67,0,0,0-4.89,2,6.84,6.84,0,0,0-1.45,2.3,8,8,0,0,0-.52,2.94V32.57h-1.9Zm30,27.32a13.35,13.35,0,0,0,5.12-.94A11.21,11.21,0,0,0,235,23.33a12.56,12.56,0,0,0,.87-4.71v-.08a12.61,12.61,0,0,0-.87-4.69,11.34,11.34,0,0,0-6.34-6.45,13.1,13.1,0,0,0-5.12-1h-7V30.64Zm-9-26.12h9a15.6,15.6,0,0,1,5.84,1.06,13.72,13.72,0,0,1,4.58,2.94,13.12,13.12,0,0,1,3,4.43,14.32,14.32,0,0,1,1,5.51v.08a14.47,14.47,0,0,1-1,5.53,13.07,13.07,0,0,1-3,4.45,14,14,0,0,1-4.58,3,15.34,15.34,0,0,1-5.84,1.08h-9Zm32.78,26.68a8.87,8.87,0,0,0,2.87-.46,7.8,7.8,0,0,0,2.39-1.28,6.09,6.09,0,0,0,1.63-2,5.49,5.49,0,0,0,.6-2.56V22.59q-1.24-.32-2.91-.62a21.61,21.61,0,0,0-3.8-.3,7.77,7.77,0,0,0-4.83,1.3,4.16,4.16,0,0,0-1.69,3.46v.08a4.1,4.1,0,0,0,.47,2A4.49,4.49,0,0,0,243.26,30a5.87,5.87,0,0,0,1.84.92,7.38,7.38,0,0,0,2.17.32M247.16,33a9.67,9.67,0,0,1-2.75-.4,7.79,7.79,0,0,1-2.44-1.2,6.32,6.32,0,0,1-1.77-2,5.61,5.61,0,0,1-.68-2.8v-.08a6.12,6.12,0,0,1,.64-2.84,6,6,0,0,1,1.76-2.08,8.08,8.08,0,0,1,2.71-1.28,13.2,13.2,0,0,1,3.53-.44,23.36,23.36,0,0,1,3.61.24,26.39,26.39,0,0,1,2.95.64v-.88A6,6,0,0,0,253,15.22a6.88,6.88,0,0,0-4.79-1.56,11.41,11.41,0,0,0-3.34.46A16.1,16.1,0,0,0,242,15.3l-.7-1.72a20,20,0,0,1,3.3-1.28,13.42,13.42,0,0,1,3.72-.48,8.29,8.29,0,0,1,6.24,2.24,7.94,7.94,0,0,1,2,5.77V32.57h-1.86v-3.4a10,10,0,0,1-1.22,1.42,8.34,8.34,0,0,1-1.65,1.24A9.3,9.3,0,0,1,247.16,33m13-20.91h1.9v5.81a11.61,11.61,0,0,1,1.47-2.52,9.9,9.9,0,0,1,2-2A8.44,8.44,0,0,1,268,12.2a8.53,8.53,0,0,1,2.81-.38V14h-.19a8.23,8.23,0,0,0-3.26.66,7.79,7.79,0,0,0-2.73,2,9.64,9.64,0,0,0-1.88,3.2,12.69,12.69,0,0,0-.7,4.39v8.37h-1.9Zm12.26-8.81h1.9V25.24l12.26-13.1h2.52l-8.65,9.05,8.92,11.38H287l-7.83-10-4.81,5v5h-1.9Zm18.74,0h1.9V32.57h-1.9Zm8.54,35.77a8.43,8.43,0,0,1-2-.22,11.91,11.91,0,0,1-1.9-.66l.66-1.72a6.89,6.89,0,0,0,1.51.58,8,8,0,0,0,1.86.18,4.16,4.16,0,0,0,1.44-.24,3.42,3.42,0,0,0,1.24-.82,7.49,7.49,0,0,0,1.12-1.5,17.75,17.75,0,0,0,1.09-2.24l-9.5-20.31h2.21l8.22,18.27,7.14-18.27h2.09l-8.57,21.15a11.51,11.51,0,0,1-2.89,4.51,5.62,5.62,0,0,1-3.7,1.3" style="fill:#fff;fill-rule:evenodd"/><path d="M113.66,59.73A7.28,7.28,0,0,1,115,64.27a7.08,7.08,0,0,1-2.58,5.84q-2.58,2.08-7.2,2.08H92.64V43.1h12.17a11.1,11.1,0,0,1,7,2,7.33,7.33,0,0,1,1.32,9.59,7.19,7.19,0,0,1-3.4,2.52A7.14,7.14,0,0,1,113.66,59.73Zm-16.86-4h7.34q6.11,0,6.11-4.62a4,4,0,0,0-1.51-3.42,7.74,7.74,0,0,0-4.6-1.11H96.81Zm12.67,11.92A4.26,4.26,0,0,0,111,64a4.47,4.47,0,0,0-1.51-3.69,7.32,7.32,0,0,0-4.64-1.22h-8v9.66h8A7.59,7.59,0,0,0,109.48,67.61Z" style="fill:#fff"/><path d="M118.43,72.19V43.1h4.17V72.19Z" style="fill:#fff"/><path d="M130.25,71.2a8.62,8.62,0,0,1-3.47-3.65,13.17,13.17,0,0,1,0-11.06,8.63,8.63,0,0,1,3.47-3.65,11.29,11.29,0,0,1,10.44,0,8.63,8.63,0,0,1,3.47,3.65,13.17,13.17,0,0,1,0,11.06,8.63,8.63,0,0,1-3.47,3.65,11.29,11.29,0,0,1-10.44,0Zm9.45-3.84A8.32,8.32,0,0,0,141.17,62a8.25,8.25,0,0,0-1.49-5.3,5.74,5.74,0,0,0-8.42,0,8.25,8.25,0,0,0-1.49,5.3,8.32,8.32,0,0,0,1.46,5.32,5.83,5.83,0,0,0,8.46,0Z" style="fill:#fff"/><path d="M167,52.05V70.58q0,4.62-2.46,7t-7.24,2.35a17.5,17.5,0,0,1-4.93-.68,13.91,13.91,0,0,1-4.15-2l1.28-3a15.32,15.32,0,0,0,3.82,1.84,13.52,13.52,0,0,0,3.94.56q5.65,0,5.65-5.74V67.73a6.32,6.32,0,0,1-2.64,2.83,8.18,8.18,0,0,1-4.13,1,9,9,0,0,1-4.7-1.24,8.32,8.32,0,0,1-3.2-3.51,11.56,11.56,0,0,1-1.13-5.24,11.4,11.4,0,0,1,1.16-5.24,8.65,8.65,0,0,1,3.2-3.53,8.75,8.75,0,0,1,4.68-1.26,8.13,8.13,0,0,1,4.06,1,6.48,6.48,0,0,1,2.66,2.81v-3.3Zm-5.65,14.44a7.29,7.29,0,0,0,1.53-4.91,7.37,7.37,0,0,0-1.51-4.89,5.22,5.22,0,0,0-4.23-1.79,5.37,5.37,0,0,0-4.27,1.77,7.22,7.22,0,0,0-1.55,4.91,7.16,7.16,0,0,0,1.57,4.91,5.38,5.38,0,0,0,4.25,1.77A5.26,5.26,0,0,0,161.38,66.49Z" style="fill:#fff"/></g></g></svg>